<mxfile host="Electron" modified="2024-04-24T16:54:06.179Z" agent="Mozilla/5.0 (Windows NT 10.0; Win64; x64) AppleWebKit/537.36 (KHTML, like Gecko) draw.io/22.1.2 Chrome/114.0.5735.289 Electron/25.9.4 Safari/537.36" etag="3kmTMShBx0nJW1QdI5gV" version="22.1.2" type="device" pages="6">
  <diagram name="partial-state-definition" id="esJ4oKuDc1AUAkDKpUPA">
    <mxGraphModel dx="1034" dy="708" grid="1" gridSize="10" guides="1" tooltips="1" connect="1" arrows="1" fold="1" page="1" pageScale="1" pageWidth="850" pageHeight="1100" math="0" shadow="0">
      <root>
        <mxCell id="0" />
        <mxCell id="1" parent="0" />
        <mxCell id="wGUUGG_alazqvehzg0rN-7" value="" style="rounded=1;whiteSpace=wrap;html=1;fillColor=#E6E6E6;" vertex="1" parent="1">
          <mxGeometry x="140" y="450" width="820" height="170" as="geometry" />
        </mxCell>
        <mxCell id="laX5ka6uEyMnDQmm-8MJ-3" value="" style="rounded=1;whiteSpace=wrap;html=1;" vertex="1" parent="1">
          <mxGeometry x="160" y="470" width="360" height="130" as="geometry" />
        </mxCell>
        <mxCell id="laX5ka6uEyMnDQmm-8MJ-2" value="&lt;b style=&quot;border-color: var(--border-color);&quot;&gt;&lt;font style=&quot;border-color: var(--border-color); font-size: 18px;&quot;&gt;STATE_1&lt;/font&gt;&lt;/b&gt;" style="text;html=1;strokeColor=none;fillColor=none;align=center;verticalAlign=middle;whiteSpace=wrap;rounded=0;" vertex="1" parent="1">
          <mxGeometry x="280" y="470" width="130" height="40" as="geometry" />
        </mxCell>
        <mxCell id="laX5ka6uEyMnDQmm-8MJ-4" value="&lt;div style=&quot;border-color: var(--border-color);&quot;&gt;enum ecu_fsm_status STATE_1(struct ecu_fsm *me,&amp;nbsp;&lt;/div&gt;&lt;div style=&quot;border-color: var(--border-color);&quot;&gt;&amp;nbsp; &amp;nbsp; &amp;nbsp; &amp;nbsp; &amp;nbsp; &amp;nbsp; &amp;nbsp; &amp;nbsp; &amp;nbsp; &amp;nbsp; &amp;nbsp; &amp;nbsp; &amp;nbsp; &amp;nbsp; &amp;nbsp; &amp;nbsp; &amp;nbsp; &amp;nbsp; &amp;nbsp; &amp;nbsp; &amp;nbsp; &amp;nbsp; &amp;nbsp; &amp;nbsp; &amp;nbsp; &amp;nbsp; const struct ecu_event *event)&lt;/div&gt;&lt;div style=&quot;border-color: var(--border-color);&quot;&gt;{&lt;/div&gt;&lt;div style=&quot;border-color: var(--border-color);&quot;&gt;&amp;nbsp; &amp;nbsp; // required user-defined function&lt;/div&gt;&lt;div style=&quot;border-color: var(--border-color);&quot;&gt;}&lt;/div&gt;" style="text;html=1;strokeColor=none;fillColor=none;align=left;verticalAlign=middle;whiteSpace=wrap;rounded=0;" vertex="1" parent="1">
          <mxGeometry x="170" y="510" width="350" height="90" as="geometry" />
        </mxCell>
        <mxCell id="laX5ka6uEyMnDQmm-8MJ-6" value="" style="rounded=1;whiteSpace=wrap;html=1;" vertex="1" parent="1">
          <mxGeometry x="580" y="470" width="360" height="130" as="geometry" />
        </mxCell>
        <mxCell id="laX5ka6uEyMnDQmm-8MJ-7" value="&lt;b style=&quot;border-color: var(--border-color);&quot;&gt;&lt;font style=&quot;border-color: var(--border-color); font-size: 18px;&quot;&gt;STATE_2&lt;/font&gt;&lt;/b&gt;" style="text;html=1;strokeColor=none;fillColor=none;align=center;verticalAlign=middle;whiteSpace=wrap;rounded=0;" vertex="1" parent="1">
          <mxGeometry x="700" y="470" width="130" height="40" as="geometry" />
        </mxCell>
        <mxCell id="laX5ka6uEyMnDQmm-8MJ-8" value="&lt;div style=&quot;border-color: var(--border-color);&quot;&gt;enum ecu_fsm_status STATE_2(struct ecu_fsm *me,&amp;nbsp;&lt;/div&gt;&lt;div style=&quot;border-color: var(--border-color);&quot;&gt;&amp;nbsp; &amp;nbsp; &amp;nbsp; &amp;nbsp; &amp;nbsp; &amp;nbsp; &amp;nbsp; &amp;nbsp; &amp;nbsp; &amp;nbsp; &amp;nbsp; &amp;nbsp; &amp;nbsp; &amp;nbsp; &amp;nbsp; &amp;nbsp; &amp;nbsp; &amp;nbsp; &amp;nbsp; &amp;nbsp; &amp;nbsp; &amp;nbsp; &amp;nbsp; &amp;nbsp; &amp;nbsp; &amp;nbsp; const struct ecu_event *event)&lt;/div&gt;&lt;div style=&quot;border-color: var(--border-color);&quot;&gt;{&lt;/div&gt;&lt;div style=&quot;border-color: var(--border-color);&quot;&gt;&amp;nbsp; &amp;nbsp; // required user-defined function&lt;/div&gt;&lt;div style=&quot;border-color: var(--border-color);&quot;&gt;}&lt;/div&gt;" style="text;html=1;strokeColor=none;fillColor=none;align=left;verticalAlign=middle;whiteSpace=wrap;rounded=0;" vertex="1" parent="1">
          <mxGeometry x="590" y="510" width="350" height="90" as="geometry" />
        </mxCell>
      </root>
    </mxGraphModel>
  </diagram>
  <diagram id="h1YSz-hFD0SvPYyfXd3t" name="full-state-definition">
    <mxGraphModel dx="1999" dy="1887" grid="1" gridSize="10" guides="1" tooltips="1" connect="1" arrows="1" fold="1" page="1" pageScale="1" pageWidth="850" pageHeight="1100" math="0" shadow="0">
      <root>
        <mxCell id="0" />
        <mxCell id="1" parent="0" />
        <mxCell id="5cHVdRoK0F-citk0HDPC-1" value="" style="rounded=1;whiteSpace=wrap;html=1;fillColor=#E6E6E6;" vertex="1" parent="1">
          <mxGeometry x="-310" y="-710" width="900" height="500" as="geometry" />
        </mxCell>
        <mxCell id="5cHVdRoK0F-citk0HDPC-2" value="" style="rounded=1;whiteSpace=wrap;html=1;" vertex="1" parent="1">
          <mxGeometry x="-280" y="-680" width="390" height="440" as="geometry" />
        </mxCell>
        <mxCell id="5cHVdRoK0F-citk0HDPC-3" value="&lt;b style=&quot;border-color: var(--border-color);&quot;&gt;&lt;font style=&quot;border-color: var(--border-color); font-size: 18px;&quot;&gt;STATE_1&lt;/font&gt;&lt;/b&gt;" style="text;html=1;strokeColor=none;fillColor=none;align=center;verticalAlign=middle;whiteSpace=wrap;rounded=0;" vertex="1" parent="1">
          <mxGeometry x="-150" y="-680" width="130" height="40" as="geometry" />
        </mxCell>
        <mxCell id="5cHVdRoK0F-citk0HDPC-4" value="&lt;div style=&quot;border-color: var(--border-color);&quot;&gt;enum ecu_fsm_status STATE_1(struct ecu_fsm *me,&amp;nbsp;&lt;/div&gt;&lt;div style=&quot;border-color: var(--border-color);&quot;&gt;&amp;nbsp; &amp;nbsp; &amp;nbsp; &amp;nbsp; &amp;nbsp; &amp;nbsp; &amp;nbsp; &amp;nbsp; &amp;nbsp; &amp;nbsp; &amp;nbsp; &amp;nbsp; &amp;nbsp; &amp;nbsp; &amp;nbsp; &amp;nbsp; &amp;nbsp; &amp;nbsp; &amp;nbsp; &amp;nbsp; &amp;nbsp; &amp;nbsp; &amp;nbsp; &amp;nbsp; &amp;nbsp; &amp;nbsp; const struct ecu_event *event)&lt;/div&gt;&lt;div style=&quot;border-color: var(--border-color);&quot;&gt;{&lt;/div&gt;&lt;div style=&quot;border-color: var(--border-color);&quot;&gt;&amp;nbsp; &amp;nbsp; // required user-defined function&lt;/div&gt;&lt;div style=&quot;border-color: var(--border-color);&quot;&gt;}&lt;/div&gt;&lt;div style=&quot;border-color: var(--border-color);&quot;&gt;&lt;br&gt;&lt;/div&gt;&lt;div style=&quot;border-color: var(--border-color);&quot;&gt;&lt;br&gt;&lt;/div&gt;&lt;div style=&quot;border-color: var(--border-color);&quot;&gt;&lt;div style=&quot;border-color: var(--border-color);&quot;&gt;enum ecu_fsm_status STATE_1_ON_ENTRY(struct ecu_fsm *me)&lt;/div&gt;&lt;div style=&quot;border-color: var(--border-color);&quot;&gt;{&lt;/div&gt;&lt;div style=&quot;border-color: var(--border-color);&quot;&gt;&amp;nbsp; &amp;nbsp; // optional user-defined function&lt;/div&gt;&lt;div style=&quot;border-color: var(--border-color);&quot;&gt;}&lt;/div&gt;&lt;div style=&quot;border-color: var(--border-color);&quot;&gt;&lt;br&gt;&lt;/div&gt;&lt;div style=&quot;border-color: var(--border-color);&quot;&gt;&lt;br&gt;&lt;/div&gt;&lt;div style=&quot;border-color: var(--border-color);&quot;&gt;&lt;div style=&quot;border-color: var(--border-color);&quot;&gt;void STATE_1_ON_EXIT(struct ecu_fsm *me)&lt;/div&gt;&lt;div style=&quot;border-color: var(--border-color);&quot;&gt;{&lt;/div&gt;&lt;div style=&quot;border-color: var(--border-color);&quot;&gt;&amp;nbsp; &amp;nbsp; // optional user-defined function&lt;/div&gt;&lt;div style=&quot;border-color: var(--border-color);&quot;&gt;}&lt;/div&gt;&lt;div style=&quot;border-color: var(--border-color);&quot;&gt;&lt;br&gt;&lt;/div&gt;&lt;div style=&quot;border-color: var(--border-color);&quot;&gt;&lt;br&gt;&lt;/div&gt;&lt;div style=&quot;border-color: var(--border-color);&quot;&gt;struct ecu_fsm_state state1 =&lt;/div&gt;&lt;div style=&quot;border-color: var(--border-color);&quot;&gt;{&lt;/div&gt;&lt;div style=&quot;border-color: var(--border-color);&quot;&gt;&amp;nbsp; &amp;nbsp; &amp;amp;STATE_1_ON_ENTRY, // ecu_fsm_on_entry_handler&lt;/div&gt;&lt;div style=&quot;border-color: var(--border-color);&quot;&gt;&amp;nbsp; &amp;nbsp; &amp;amp;STATE_1_ON_EXIT,&amp;nbsp; &amp;nbsp; &amp;nbsp;// ecu_fsm_on_exit_handler&lt;/div&gt;&lt;div style=&quot;border-color: var(--border-color);&quot;&gt;&amp;nbsp; &amp;nbsp; &amp;amp;STATE_1;&amp;nbsp; &amp;nbsp; &amp;nbsp; &amp;nbsp; &amp;nbsp; &amp;nbsp; &amp;nbsp; &amp;nbsp; &amp;nbsp; &amp;nbsp; &amp;nbsp; // ecu_fsm_state_handler&lt;/div&gt;&lt;div style=&quot;border-color: var(--border-color);&quot;&gt;};&lt;/div&gt;&lt;/div&gt;&lt;/div&gt;" style="text;html=1;strokeColor=none;fillColor=none;align=left;verticalAlign=middle;whiteSpace=wrap;rounded=0;" vertex="1" parent="1">
          <mxGeometry x="-260" y="-630" width="380" height="360" as="geometry" />
        </mxCell>
        <mxCell id="5cHVdRoK0F-citk0HDPC-8" value="" style="rounded=1;whiteSpace=wrap;html=1;" vertex="1" parent="1">
          <mxGeometry x="170" y="-680" width="390" height="440" as="geometry" />
        </mxCell>
        <mxCell id="5cHVdRoK0F-citk0HDPC-9" value="&lt;b style=&quot;border-color: var(--border-color);&quot;&gt;&lt;font style=&quot;border-color: var(--border-color); font-size: 18px;&quot;&gt;STATE_2&lt;/font&gt;&lt;/b&gt;" style="text;html=1;strokeColor=none;fillColor=none;align=center;verticalAlign=middle;whiteSpace=wrap;rounded=0;" vertex="1" parent="1">
          <mxGeometry x="300" y="-680" width="130" height="40" as="geometry" />
        </mxCell>
        <mxCell id="5cHVdRoK0F-citk0HDPC-10" value="&lt;div style=&quot;border-color: var(--border-color);&quot;&gt;enum ecu_fsm_status STATE_2(struct ecu_fsm *me,&amp;nbsp;&lt;/div&gt;&lt;div style=&quot;border-color: var(--border-color);&quot;&gt;&amp;nbsp; &amp;nbsp; &amp;nbsp; &amp;nbsp; &amp;nbsp; &amp;nbsp; &amp;nbsp; &amp;nbsp; &amp;nbsp; &amp;nbsp; &amp;nbsp; &amp;nbsp; &amp;nbsp; &amp;nbsp; &amp;nbsp; &amp;nbsp; &amp;nbsp; &amp;nbsp; &amp;nbsp; &amp;nbsp; &amp;nbsp; &amp;nbsp; &amp;nbsp; &amp;nbsp; &amp;nbsp; &amp;nbsp; const struct ecu_event *event)&lt;/div&gt;&lt;div style=&quot;border-color: var(--border-color);&quot;&gt;{&lt;/div&gt;&lt;div style=&quot;border-color: var(--border-color);&quot;&gt;&amp;nbsp; &amp;nbsp; // required user-defined function&lt;/div&gt;&lt;div style=&quot;border-color: var(--border-color);&quot;&gt;}&lt;/div&gt;&lt;div style=&quot;border-color: var(--border-color);&quot;&gt;&lt;br&gt;&lt;/div&gt;&lt;div style=&quot;border-color: var(--border-color);&quot;&gt;&lt;br&gt;&lt;/div&gt;&lt;div style=&quot;border-color: var(--border-color);&quot;&gt;&lt;div style=&quot;border-color: var(--border-color);&quot;&gt;enum ecu_fsm_status STATE_2_ON_ENTRY(struct ecu_fsm *me)&lt;/div&gt;&lt;div style=&quot;border-color: var(--border-color);&quot;&gt;{&lt;/div&gt;&lt;div style=&quot;border-color: var(--border-color);&quot;&gt;&amp;nbsp; &amp;nbsp; // optional user-defined function&lt;/div&gt;&lt;div style=&quot;border-color: var(--border-color);&quot;&gt;}&lt;/div&gt;&lt;div style=&quot;border-color: var(--border-color);&quot;&gt;&lt;br&gt;&lt;/div&gt;&lt;div style=&quot;border-color: var(--border-color);&quot;&gt;&lt;br&gt;&lt;/div&gt;&lt;div style=&quot;border-color: var(--border-color);&quot;&gt;&lt;div style=&quot;border-color: var(--border-color);&quot;&gt;void STATE_2_ON_EXIT(struct ecu_fsm *me)&lt;/div&gt;&lt;div style=&quot;border-color: var(--border-color);&quot;&gt;{&lt;/div&gt;&lt;div style=&quot;border-color: var(--border-color);&quot;&gt;&amp;nbsp; &amp;nbsp; // optional user-defined function&lt;/div&gt;&lt;div style=&quot;border-color: var(--border-color);&quot;&gt;}&lt;/div&gt;&lt;div style=&quot;border-color: var(--border-color);&quot;&gt;&lt;br&gt;&lt;/div&gt;&lt;div style=&quot;border-color: var(--border-color);&quot;&gt;&lt;br&gt;&lt;/div&gt;&lt;div style=&quot;border-color: var(--border-color);&quot;&gt;struct ecu_fsm_state state2 =&lt;/div&gt;&lt;div style=&quot;border-color: var(--border-color);&quot;&gt;{&lt;/div&gt;&lt;div style=&quot;border-color: var(--border-color);&quot;&gt;&amp;nbsp; &amp;nbsp; &amp;amp;STATE_2_ON_ENTRY, // ecu_fsm_on_entry_handler&lt;/div&gt;&lt;div style=&quot;border-color: var(--border-color);&quot;&gt;&amp;nbsp; &amp;nbsp; &amp;amp;STATE_2_ON_EXIT,&amp;nbsp; &amp;nbsp; &amp;nbsp;// ecu_fsm_on_exit_handler&lt;/div&gt;&lt;div style=&quot;border-color: var(--border-color);&quot;&gt;&amp;nbsp; &amp;nbsp; &amp;amp;STATE_2;&amp;nbsp; &amp;nbsp; &amp;nbsp; &amp;nbsp; &amp;nbsp; &amp;nbsp; &amp;nbsp; &amp;nbsp; &amp;nbsp; &amp;nbsp; &amp;nbsp; // ecu_fsm_state_handler&lt;/div&gt;&lt;div style=&quot;border-color: var(--border-color);&quot;&gt;};&lt;/div&gt;&lt;/div&gt;&lt;/div&gt;" style="text;html=1;strokeColor=none;fillColor=none;align=left;verticalAlign=middle;whiteSpace=wrap;rounded=0;" vertex="1" parent="1">
          <mxGeometry x="190" y="-630" width="380" height="360" as="geometry" />
        </mxCell>
      </root>
    </mxGraphModel>
  </diagram>
  <diagram id="Gz4msx4WPLWFc2ICin27" name="state-transition">
    <mxGraphModel dx="2066" dy="1933" grid="1" gridSize="10" guides="1" tooltips="1" connect="1" arrows="1" fold="1" page="1" pageScale="1" pageWidth="850" pageHeight="1100" math="0" shadow="0">
      <root>
        <mxCell id="0" />
        <mxCell id="1" parent="0" />
        <mxCell id="Gi-92JfO9srwZ4a0y0n--2" value="" style="rounded=1;whiteSpace=wrap;html=1;fillColor=#E6E6E6;" vertex="1" parent="1">
          <mxGeometry x="-720" y="-770" width="550" height="420" as="geometry" />
        </mxCell>
        <mxCell id="biy7piaW05P--SzT9t81-6" style="edgeStyle=orthogonalEdgeStyle;rounded=0;orthogonalLoop=1;jettySize=auto;html=1;entryX=0;entryY=0.5;entryDx=0;entryDy=0;strokeWidth=3;" edge="1" parent="1" source="biy7piaW05P--SzT9t81-2" target="biy7piaW05P--SzT9t81-12">
          <mxGeometry relative="1" as="geometry">
            <mxPoint x="-460" y="-572.5" as="targetPoint" />
          </mxGeometry>
        </mxCell>
        <mxCell id="biy7piaW05P--SzT9t81-2" value="" style="rounded=1;whiteSpace=wrap;html=1;" vertex="1" parent="1">
          <mxGeometry x="-670" y="-600" width="160" height="55" as="geometry" />
        </mxCell>
        <mxCell id="biy7piaW05P--SzT9t81-1" value="&lt;b style=&quot;border-color: var(--border-color);&quot;&gt;&lt;font style=&quot;border-color: var(--border-color); font-size: 18px;&quot;&gt;STATE_1&lt;/font&gt;&lt;/b&gt;" style="text;html=1;strokeColor=none;fillColor=none;align=center;verticalAlign=middle;whiteSpace=wrap;rounded=0;" vertex="1" parent="1">
          <mxGeometry x="-655" y="-592.5" width="130" height="40" as="geometry" />
        </mxCell>
        <mxCell id="biy7piaW05P--SzT9t81-10" style="edgeStyle=orthogonalEdgeStyle;rounded=0;orthogonalLoop=1;jettySize=auto;html=1;strokeWidth=3;dashed=1;entryX=0.5;entryY=0;entryDx=0;entryDy=0;" edge="1" parent="1" source="biy7piaW05P--SzT9t81-7" target="biy7piaW05P--SzT9t81-2">
          <mxGeometry relative="1" as="geometry">
            <mxPoint x="-590" y="-610" as="targetPoint" />
          </mxGeometry>
        </mxCell>
        <mxCell id="biy7piaW05P--SzT9t81-7" value="" style="rounded=1;whiteSpace=wrap;html=1;" vertex="1" parent="1">
          <mxGeometry x="-700" y="-740" width="220" height="70" as="geometry" />
        </mxCell>
        <mxCell id="biy7piaW05P--SzT9t81-9" value="fsm currently in STATE_1.&lt;br&gt;&lt;br&gt;ecu_fsm_dispatch(&amp;amp;fsm, &amp;amp;event);" style="text;html=1;strokeColor=none;fillColor=none;align=center;verticalAlign=middle;whiteSpace=wrap;rounded=0;" vertex="1" parent="1">
          <mxGeometry x="-700" y="-730" width="220" height="50" as="geometry" />
        </mxCell>
        <mxCell id="biy7piaW05P--SzT9t81-11" value="" style="html=1;verticalLabelPosition=bottom;align=center;labelBackgroundColor=#ffffff;verticalAlign=top;strokeWidth=2;strokeColor=#0080F0;shadow=0;dashed=0;shape=mxgraph.ios7.icons.mail;" vertex="1" parent="1">
          <mxGeometry x="-580" y="-650" width="30" height="16.5" as="geometry" />
        </mxCell>
        <mxCell id="biy7piaW05P--SzT9t81-12" value="" style="rounded=1;whiteSpace=wrap;html=1;" vertex="1" parent="1">
          <mxGeometry x="-350" y="-600" width="160" height="55" as="geometry" />
        </mxCell>
        <mxCell id="biy7piaW05P--SzT9t81-13" value="&lt;b style=&quot;border-color: var(--border-color);&quot;&gt;&lt;font style=&quot;border-color: var(--border-color); font-size: 18px;&quot;&gt;STATE_2&lt;/font&gt;&lt;/b&gt;" style="text;html=1;strokeColor=none;fillColor=none;align=center;verticalAlign=middle;whiteSpace=wrap;rounded=0;" vertex="1" parent="1">
          <mxGeometry x="-335" y="-592.5" width="130" height="40" as="geometry" />
        </mxCell>
        <mxCell id="biy7piaW05P--SzT9t81-14" value="&lt;div style=&quot;&quot;&gt;&lt;span style=&quot;background-color: initial;&quot;&gt;&lt;b&gt;&lt;font style=&quot;font-size: 16px;&quot;&gt;Order of Execution:&lt;/font&gt;&lt;/b&gt;&lt;/span&gt;&lt;/div&gt;&lt;div style=&quot;&quot;&gt;&lt;span style=&quot;background-color: initial;&quot;&gt;1. State 1 handler (state1.STATE_1)&lt;/span&gt;&lt;/div&gt;2. State 1 exit handler (state1.STATE_1_ON_EXIT)&lt;br&gt;3. State 2 entry handler (state2.STATE_2_ON_ENTRY)" style="text;html=1;strokeColor=default;fillColor=default;align=left;verticalAlign=middle;whiteSpace=wrap;rounded=0;" vertex="1" parent="1">
          <mxGeometry x="-610" y="-490" width="330" height="110" as="geometry" />
        </mxCell>
        <mxCell id="biy7piaW05P--SzT9t81-15" value="fsm state = STATE_2" style="text;html=1;strokeColor=none;fillColor=none;align=center;verticalAlign=middle;whiteSpace=wrap;rounded=0;" vertex="1" parent="1">
          <mxGeometry x="-500" y="-600" width="145" height="30" as="geometry" />
        </mxCell>
      </root>
    </mxGraphModel>
  </diagram>
  <diagram id="YISwCZIZFDYPNvCsEUaH" name="consecutive-state-transition">
    <mxGraphModel dx="2143" dy="1985" grid="1" gridSize="10" guides="1" tooltips="1" connect="1" arrows="1" fold="1" page="1" pageScale="1" pageWidth="850" pageHeight="1100" math="0" shadow="0">
      <root>
        <mxCell id="0" />
        <mxCell id="1" parent="0" />
        <mxCell id="x82oU_0-JzqrGkDCsyBJ-1" value="" style="rounded=1;whiteSpace=wrap;html=1;fillColor=#E6E6E6;" vertex="1" parent="1">
          <mxGeometry x="-720" y="-770" width="880" height="420" as="geometry" />
        </mxCell>
        <mxCell id="x82oU_0-JzqrGkDCsyBJ-2" style="edgeStyle=orthogonalEdgeStyle;rounded=0;orthogonalLoop=1;jettySize=auto;html=1;entryX=0;entryY=0.5;entryDx=0;entryDy=0;strokeWidth=3;" edge="1" parent="1" source="x82oU_0-JzqrGkDCsyBJ-3" target="x82oU_0-JzqrGkDCsyBJ-9">
          <mxGeometry relative="1" as="geometry">
            <mxPoint x="-460" y="-572.5" as="targetPoint" />
          </mxGeometry>
        </mxCell>
        <mxCell id="x82oU_0-JzqrGkDCsyBJ-3" value="" style="rounded=1;whiteSpace=wrap;html=1;" vertex="1" parent="1">
          <mxGeometry x="-670" y="-600" width="160" height="55" as="geometry" />
        </mxCell>
        <mxCell id="x82oU_0-JzqrGkDCsyBJ-4" value="&lt;b style=&quot;border-color: var(--border-color);&quot;&gt;&lt;font style=&quot;border-color: var(--border-color); font-size: 18px;&quot;&gt;STATE_1&lt;/font&gt;&lt;/b&gt;" style="text;html=1;strokeColor=none;fillColor=none;align=center;verticalAlign=middle;whiteSpace=wrap;rounded=0;" vertex="1" parent="1">
          <mxGeometry x="-655" y="-592.5" width="130" height="40" as="geometry" />
        </mxCell>
        <mxCell id="x82oU_0-JzqrGkDCsyBJ-5" style="edgeStyle=orthogonalEdgeStyle;rounded=0;orthogonalLoop=1;jettySize=auto;html=1;strokeWidth=3;dashed=1;entryX=0.5;entryY=0;entryDx=0;entryDy=0;" edge="1" parent="1" source="x82oU_0-JzqrGkDCsyBJ-6" target="x82oU_0-JzqrGkDCsyBJ-3">
          <mxGeometry relative="1" as="geometry">
            <mxPoint x="-590" y="-610" as="targetPoint" />
          </mxGeometry>
        </mxCell>
        <mxCell id="x82oU_0-JzqrGkDCsyBJ-6" value="" style="rounded=1;whiteSpace=wrap;html=1;" vertex="1" parent="1">
          <mxGeometry x="-700" y="-740" width="220" height="70" as="geometry" />
        </mxCell>
        <mxCell id="x82oU_0-JzqrGkDCsyBJ-7" value="fsm currently in STATE_1.&lt;br&gt;&lt;br&gt;ecu_fsm_dispatch(&amp;amp;fsm, &amp;amp;event);" style="text;html=1;strokeColor=none;fillColor=none;align=center;verticalAlign=middle;whiteSpace=wrap;rounded=0;" vertex="1" parent="1">
          <mxGeometry x="-700" y="-730" width="220" height="50" as="geometry" />
        </mxCell>
        <mxCell id="x82oU_0-JzqrGkDCsyBJ-8" value="" style="html=1;verticalLabelPosition=bottom;align=center;labelBackgroundColor=#ffffff;verticalAlign=top;strokeWidth=2;strokeColor=#0080F0;shadow=0;dashed=0;shape=mxgraph.ios7.icons.mail;" vertex="1" parent="1">
          <mxGeometry x="-580" y="-650" width="30" height="16.5" as="geometry" />
        </mxCell>
        <mxCell id="x82oU_0-JzqrGkDCsyBJ-9" value="" style="rounded=1;whiteSpace=wrap;html=1;" vertex="1" parent="1">
          <mxGeometry x="-350" y="-600" width="160" height="55" as="geometry" />
        </mxCell>
        <mxCell id="x82oU_0-JzqrGkDCsyBJ-10" value="&lt;b style=&quot;border-color: var(--border-color);&quot;&gt;&lt;font style=&quot;border-color: var(--border-color); font-size: 18px;&quot;&gt;STATE_2&lt;/font&gt;&lt;/b&gt;" style="text;html=1;strokeColor=none;fillColor=none;align=center;verticalAlign=middle;whiteSpace=wrap;rounded=0;" vertex="1" parent="1">
          <mxGeometry x="-335" y="-592.5" width="130" height="40" as="geometry" />
        </mxCell>
        <mxCell id="x82oU_0-JzqrGkDCsyBJ-11" value="&lt;div style=&quot;&quot;&gt;&lt;span style=&quot;background-color: initial;&quot;&gt;&lt;b&gt;&lt;font style=&quot;font-size: 16px;&quot;&gt;Order of Execution:&lt;/font&gt;&lt;/b&gt;&lt;/span&gt;&lt;/div&gt;&lt;div style=&quot;&quot;&gt;&lt;span style=&quot;background-color: initial;&quot;&gt;1. State 1 handler (state1.STATE_1)&lt;/span&gt;&lt;/div&gt;2. State 1 exit handler (state1.STATE_1_ON_EXIT)&lt;br&gt;3. State 2 entry handler (state2.STATE_2_ON_ENTRY)&lt;br&gt;4. State 2 exit handler (state2.STATE_2_ON_EXIT)&lt;br&gt;5. State 3 entry handler (state3.STATE_3_ON_ENTRY)" style="text;html=1;strokeColor=default;fillColor=default;align=left;verticalAlign=middle;whiteSpace=wrap;rounded=0;" vertex="1" parent="1">
          <mxGeometry x="-445" y="-490" width="330" height="110" as="geometry" />
        </mxCell>
        <mxCell id="x82oU_0-JzqrGkDCsyBJ-12" value="fsm state = STATE_2" style="text;html=1;strokeColor=none;fillColor=none;align=center;verticalAlign=middle;whiteSpace=wrap;rounded=0;" vertex="1" parent="1">
          <mxGeometry x="-500" y="-600" width="145" height="30" as="geometry" />
        </mxCell>
        <mxCell id="x82oU_0-JzqrGkDCsyBJ-14" style="edgeStyle=orthogonalEdgeStyle;rounded=0;orthogonalLoop=1;jettySize=auto;html=1;entryX=0;entryY=0.5;entryDx=0;entryDy=0;strokeWidth=3;exitX=1;exitY=0.5;exitDx=0;exitDy=0;" edge="1" parent="1" source="x82oU_0-JzqrGkDCsyBJ-9" target="x82oU_0-JzqrGkDCsyBJ-17">
          <mxGeometry relative="1" as="geometry">
            <mxPoint x="-140" y="-572.5" as="targetPoint" />
            <mxPoint x="-190" y="-572.5" as="sourcePoint" />
          </mxGeometry>
        </mxCell>
        <mxCell id="x82oU_0-JzqrGkDCsyBJ-17" value="" style="rounded=1;whiteSpace=wrap;html=1;" vertex="1" parent="1">
          <mxGeometry x="-30" y="-600" width="160" height="55" as="geometry" />
        </mxCell>
        <mxCell id="x82oU_0-JzqrGkDCsyBJ-18" value="&lt;b style=&quot;border-color: var(--border-color);&quot;&gt;&lt;font style=&quot;border-color: var(--border-color); font-size: 18px;&quot;&gt;STATE_3&lt;/font&gt;&lt;/b&gt;" style="text;html=1;strokeColor=none;fillColor=none;align=center;verticalAlign=middle;whiteSpace=wrap;rounded=0;" vertex="1" parent="1">
          <mxGeometry x="-15" y="-592.5" width="130" height="40" as="geometry" />
        </mxCell>
        <mxCell id="x82oU_0-JzqrGkDCsyBJ-19" value="fsm state = STATE_3" style="text;html=1;strokeColor=none;fillColor=none;align=center;verticalAlign=middle;whiteSpace=wrap;rounded=0;" vertex="1" parent="1">
          <mxGeometry x="-180" y="-600" width="145" height="30" as="geometry" />
        </mxCell>
      </root>
    </mxGraphModel>
  </diagram>
  <diagram id="v4DnE4QtGoJgm9eDdURi" name="self-state-transition">
    <mxGraphModel dx="1712" dy="1690" grid="1" gridSize="10" guides="1" tooltips="1" connect="1" arrows="1" fold="1" page="1" pageScale="1" pageWidth="850" pageHeight="1100" math="0" shadow="0">
      <root>
        <mxCell id="0" />
        <mxCell id="1" parent="0" />
        <mxCell id="TDOVjKZk4keQPjB5xGjR-1" value="" style="rounded=1;whiteSpace=wrap;html=1;fillColor=#E6E6E6;" vertex="1" parent="1">
          <mxGeometry x="-720" y="-770" width="550" height="400" as="geometry" />
        </mxCell>
        <mxCell id="TDOVjKZk4keQPjB5xGjR-2" style="edgeStyle=orthogonalEdgeStyle;rounded=0;orthogonalLoop=1;jettySize=auto;html=1;entryX=1;entryY=0.25;entryDx=0;entryDy=0;strokeWidth=3;exitX=1;exitY=0.75;exitDx=0;exitDy=0;" edge="1" parent="1" source="TDOVjKZk4keQPjB5xGjR-3" target="TDOVjKZk4keQPjB5xGjR-3">
          <mxGeometry relative="1" as="geometry">
            <mxPoint x="-210" y="-577.5" as="targetPoint" />
            <Array as="points">
              <mxPoint x="-370" y="-565" />
              <mxPoint x="-270" y="-565" />
              <mxPoint x="-270" y="-591" />
            </Array>
          </mxGeometry>
        </mxCell>
        <mxCell id="TDOVjKZk4keQPjB5xGjR-3" value="" style="rounded=1;whiteSpace=wrap;html=1;" vertex="1" parent="1">
          <mxGeometry x="-530" y="-605" width="160" height="55" as="geometry" />
        </mxCell>
        <mxCell id="TDOVjKZk4keQPjB5xGjR-4" value="&lt;b style=&quot;border-color: var(--border-color);&quot;&gt;&lt;font style=&quot;border-color: var(--border-color); font-size: 18px;&quot;&gt;STATE_1&lt;/font&gt;&lt;/b&gt;" style="text;html=1;strokeColor=none;fillColor=none;align=center;verticalAlign=middle;whiteSpace=wrap;rounded=0;" vertex="1" parent="1">
          <mxGeometry x="-515" y="-597.5" width="130" height="40" as="geometry" />
        </mxCell>
        <mxCell id="TDOVjKZk4keQPjB5xGjR-5" style="edgeStyle=orthogonalEdgeStyle;rounded=0;orthogonalLoop=1;jettySize=auto;html=1;strokeWidth=3;dashed=1;entryX=0.5;entryY=0;entryDx=0;entryDy=0;" edge="1" parent="1" source="TDOVjKZk4keQPjB5xGjR-6" target="TDOVjKZk4keQPjB5xGjR-3">
          <mxGeometry relative="1" as="geometry">
            <mxPoint x="-450" y="-615" as="targetPoint" />
          </mxGeometry>
        </mxCell>
        <mxCell id="TDOVjKZk4keQPjB5xGjR-6" value="" style="rounded=1;whiteSpace=wrap;html=1;" vertex="1" parent="1">
          <mxGeometry x="-560" y="-745" width="220" height="70" as="geometry" />
        </mxCell>
        <mxCell id="TDOVjKZk4keQPjB5xGjR-7" value="fsm currently in STATE_1.&lt;br&gt;&lt;br&gt;ecu_fsm_dispatch(&amp;amp;fsm, &amp;amp;event);" style="text;html=1;strokeColor=none;fillColor=none;align=center;verticalAlign=middle;whiteSpace=wrap;rounded=0;" vertex="1" parent="1">
          <mxGeometry x="-560" y="-735" width="220" height="50" as="geometry" />
        </mxCell>
        <mxCell id="TDOVjKZk4keQPjB5xGjR-8" value="" style="html=1;verticalLabelPosition=bottom;align=center;labelBackgroundColor=#ffffff;verticalAlign=top;strokeWidth=2;strokeColor=#0080F0;shadow=0;dashed=0;shape=mxgraph.ios7.icons.mail;" vertex="1" parent="1">
          <mxGeometry x="-440" y="-655" width="30" height="16.5" as="geometry" />
        </mxCell>
        <mxCell id="TDOVjKZk4keQPjB5xGjR-11" value="&lt;div style=&quot;&quot;&gt;&lt;span style=&quot;background-color: initial;&quot;&gt;&lt;b&gt;&lt;font style=&quot;font-size: 16px;&quot;&gt;Order of Execution:&lt;/font&gt;&lt;/b&gt;&lt;/span&gt;&lt;/div&gt;&lt;div style=&quot;&quot;&gt;&lt;span style=&quot;background-color: initial;&quot;&gt;1. State 1 handler (state1.STATE_1)&lt;/span&gt;&lt;/div&gt;2. State 1 exit handler (state1.STATE_1_ON_EXIT)&lt;br&gt;3. State 1 entry handler (state1.STATE_1_ON_ENTRY)" style="text;html=1;strokeColor=default;fillColor=default;align=left;verticalAlign=middle;whiteSpace=wrap;rounded=0;" vertex="1" parent="1">
          <mxGeometry x="-610" y="-510" width="330" height="110" as="geometry" />
        </mxCell>
        <mxCell id="TDOVjKZk4keQPjB5xGjR-12" value="fsm state = STATE_1" style="text;html=1;strokeColor=none;fillColor=none;align=center;verticalAlign=middle;whiteSpace=wrap;rounded=0;" vertex="1" parent="1">
          <mxGeometry x="-366" y="-616" width="145" height="30" as="geometry" />
        </mxCell>
      </root>
    </mxGraphModel>
  </diagram>
  <diagram id="nxnpoN1YnByCblcfaMEt" name="fsm-example">
    <mxGraphModel dx="2066" dy="1933" grid="1" gridSize="10" guides="1" tooltips="1" connect="1" arrows="1" fold="1" page="1" pageScale="1" pageWidth="850" pageHeight="1100" math="0" shadow="0">
      <root>
        <mxCell id="0" />
        <mxCell id="1" parent="0" />
        <mxCell id="Vidd9IE0RsFjEpbtBzmS-1" value="" style="rounded=1;whiteSpace=wrap;html=1;fillColor=#E6E6E6;" vertex="1" parent="1">
          <mxGeometry x="-820" y="-770" width="740" height="210" as="geometry" />
        </mxCell>
        <mxCell id="Vidd9IE0RsFjEpbtBzmS-2" style="edgeStyle=orthogonalEdgeStyle;rounded=0;orthogonalLoop=1;jettySize=auto;html=1;entryX=0;entryY=0.25;entryDx=0;entryDy=0;strokeWidth=3;exitX=1;exitY=0.25;exitDx=0;exitDy=0;" edge="1" parent="1" source="Vidd9IE0RsFjEpbtBzmS-3" target="Vidd9IE0RsFjEpbtBzmS-13">
          <mxGeometry relative="1" as="geometry">
            <mxPoint x="-490" y="-687.5" as="targetPoint" />
          </mxGeometry>
        </mxCell>
        <mxCell id="Vidd9IE0RsFjEpbtBzmS-3" value="" style="rounded=1;whiteSpace=wrap;html=1;" vertex="1" parent="1">
          <mxGeometry x="-790" y="-740" width="210" height="150" as="geometry" />
        </mxCell>
        <mxCell id="Vidd9IE0RsFjEpbtBzmS-4" value="&lt;b style=&quot;border-color: var(--border-color);&quot;&gt;&lt;font style=&quot;border-color: var(--border-color); font-size: 18px;&quot;&gt;STATE_1&lt;/font&gt;&lt;/b&gt;" style="text;html=1;strokeColor=none;fillColor=none;align=center;verticalAlign=middle;whiteSpace=wrap;rounded=0;" vertex="1" parent="1">
          <mxGeometry x="-750" y="-685" width="130" height="40" as="geometry" />
        </mxCell>
        <mxCell id="Vidd9IE0RsFjEpbtBzmS-12" value="fsm state = STATE_2&lt;br&gt;state1_led = OFF&lt;br&gt;state2_led = ON" style="text;html=1;strokeColor=none;fillColor=none;align=center;verticalAlign=middle;whiteSpace=wrap;rounded=0;" vertex="1" parent="1">
          <mxGeometry x="-525" y="-760" width="150" height="50" as="geometry" />
        </mxCell>
        <mxCell id="Vidd9IE0RsFjEpbtBzmS-13" value="" style="rounded=1;whiteSpace=wrap;html=1;" vertex="1" parent="1">
          <mxGeometry x="-320" y="-740" width="210" height="150" as="geometry" />
        </mxCell>
        <mxCell id="Vidd9IE0RsFjEpbtBzmS-14" value="&lt;b style=&quot;border-color: var(--border-color);&quot;&gt;&lt;font style=&quot;border-color: var(--border-color); font-size: 18px;&quot;&gt;STATE_2&lt;/font&gt;&lt;/b&gt;" style="text;html=1;strokeColor=none;fillColor=none;align=center;verticalAlign=middle;whiteSpace=wrap;rounded=0;" vertex="1" parent="1">
          <mxGeometry x="-280" y="-685" width="130" height="40" as="geometry" />
        </mxCell>
        <mxCell id="Vidd9IE0RsFjEpbtBzmS-15" style="edgeStyle=orthogonalEdgeStyle;rounded=0;orthogonalLoop=1;jettySize=auto;html=1;entryX=1;entryY=0.75;entryDx=0;entryDy=0;strokeWidth=3;exitX=0;exitY=0.75;exitDx=0;exitDy=0;" edge="1" parent="1" source="Vidd9IE0RsFjEpbtBzmS-13" target="Vidd9IE0RsFjEpbtBzmS-3">
          <mxGeometry relative="1" as="geometry">
            <mxPoint x="-460" y="-692" as="targetPoint" />
            <mxPoint x="-570" y="-692" as="sourcePoint" />
          </mxGeometry>
        </mxCell>
        <mxCell id="Vidd9IE0RsFjEpbtBzmS-16" value="fsm state = STATE_1&lt;br&gt;state1_led = ON&lt;br&gt;state2_led = OFF" style="text;html=1;strokeColor=none;fillColor=none;align=center;verticalAlign=middle;whiteSpace=wrap;rounded=0;" vertex="1" parent="1">
          <mxGeometry x="-525" y="-620" width="150" height="50" as="geometry" />
        </mxCell>
        <mxCell id="Vidd9IE0RsFjEpbtBzmS-17" value="&lt;b&gt;&lt;font style=&quot;font-size: 14px;&quot;&gt;BUTTON_PRESSED_EVENT&lt;/font&gt;&lt;/b&gt;" style="text;html=1;strokeColor=default;fillColor=none;align=center;verticalAlign=middle;whiteSpace=wrap;rounded=0;" vertex="1" parent="1">
          <mxGeometry x="-550" y="-681.87" width="200" height="33.75" as="geometry" />
        </mxCell>
      </root>
    </mxGraphModel>
  </diagram>
</mxfile>
